<svg width="1200" height="800" xmlns="http://www.w3.org/2000/svg">
<defs>
<linearGradient id="flowGradient1" x1="0%" y1="0%" x2="100%" y2="0%">
<stop offset="0%" style="stop-color:#667eea;stop-opacity:1" />
<stop offset="100%" style="stop-color:#764ba2;stop-opacity:1" />
</linearGradient>
<linearGradient id="flowGradient2" x1="0%" y1="0%" x2="100%" y2="0%">
<stop offset="0%" style="stop-color:#f093fb;stop-opacity:1" />
<stop offset="100%" style="stop-color:#f5576c;stop-opacity:1" />
</linearGradient>
<linearGradient id="flowGradient3" x1="0%" y1="0%" x2="100%" y2="0%">
<stop offset="0%" style="stop-color:#4facfe;stop-opacity:1" />
<stop offset="100%" style="stop-color:#00f2fe;stop-opacity:1" />
</linearGradient>
<linearGradient id="flowGradient4" x1="0%" y1="0%" x2="100%" y2="0%">
<stop offset="0%" style="stop-color:#43e97b;stop-opacity:1" />
<stop offset="100%" style="stop-color:#38f9d7;stop-opacity:1" />
</linearGradient>
<filter id="shadow" x="-20%" y="-20%" width="140%" height="140%">
<feDropShadow dx="3" dy="3" stdDeviation="4" flood-color="#000000" flood-opacity="0.3"/>
</filter>
<marker id="arrowhead" markerWidth="10" markerHeight="7" refX="9" refY="3.5" orient="auto">
<polygon points="0 0, 10 3.5, 0 7" fill="#333"/>
</marker>
</defs>
<rect width="1200" height="800" fill="#f8f9fa"/>
<text x="600" y="30" text-anchor="middle" font-family="Arial, sans-serif" font-size="22" font-weight="bold" fill="#2c3e50">学习效果评估流程图</text>
<g id="start">
<ellipse cx="600" cy="80" rx="60" ry="25" fill="url(#flowGradient1)" filter="url(#shadow)"/>
<text x="600" y="85" text-anchor="middle" font-family="Arial, sans-serif" font-size="12" font-weight="bold" fill="white">开始评估</text>
</g>
<g id="daily-assessment">
<rect x="100" y="140" width="120" height="60" rx="10" fill="url(#flowGradient2)" filter="url(#shadow)"/>
<text x="160" y="160" text-anchor="middle" font-family="Arial, sans-serif" font-size="11" font-weight="bold" fill="white">每日自评</text>
<text x="160" y="175" text-anchor="middle" font-family="Arial, sans-serif" font-size="10" fill="white">学习时间</text>
<text x="160" y="190" text-anchor="middle" font-family="Arial, sans-serif" font-size="10" fill="white">完成质量</text>
</g>
<g id="weekly-test">
<rect x="300" y="140" width="120" height="60" rx="10" fill="url(#flowGradient3)" filter="url(#shadow)"/>
<text x="360" y="160" text-anchor="middle" font-family="Arial, sans-serif" font-size="11" font-weight="bold" fill="white">周测验</text>
<text x="360" y="175" text-anchor="middle" font-family="Arial, sans-serif" font-size="10" fill="white">知识点检测</text>
<text x="360" y="190" text-anchor="middle" font-family="Arial, sans-serif" font-size="10" fill="white">错题分析</text>
</g>
<g id="monthly-exam">
<rect x="500" y="140" width="120" height="60" rx="10" fill="url(#flowGradient4)" filter="url(#shadow)"/>
<text x="560" y="160" text-anchor="middle" font-family="Arial, sans-serif" font-size="11" font-weight="bold" fill="white">月考</text>
<text x="560" y="175" text-anchor="middle" font-family="Arial, sans-serif" font-size="10" fill="white">综合能力</text>
<text x="560" y="190" text-anchor="middle" font-family="Arial, sans-serif" font-size="10" fill="white">成绩分析</text>
</g>
<g id="phase-review">
<rect x="700" y="140" width="120" height="60" rx="10" fill="url(#flowGradient1)" filter="url(#shadow)"/>
<text x="760" y="160" text-anchor="middle" font-family="Arial, sans-serif" font-size="11" font-weight="bold" fill="white">阶段总结</text>
<text x="760" y="175" text-anchor="middle" font-family="Arial, sans-serif" font-size="10" fill="white">目标达成</text>
<text x="760" y="190" text-anchor="middle" font-family="Arial, sans-serif" font-size="10" fill="white">问题诊断</text>
</g>
<path d="M 600 105 L 160 140" stroke="#333" stroke-width="2" fill="none" marker-end="url(#arrowhead)"/>
<path d="M 600 105 L 360 140" stroke="#333" stroke-width="2" fill="none" marker-end="url(#arrowhead)"/>
<path d="M 600 105 L 560 140" stroke="#333" stroke-width="2" fill="none" marker-end="url(#arrowhead)"/>
<path d="M 600 105 L 760 140" stroke="#333" stroke-width="2" fill="none" marker-end="url(#arrowhead)"/>
<g id="data-collection">
<rect x="450" y="250" width="300" height="80" rx="15" fill="#E8F5E8" stroke="#4CAF50" stroke-width="2" filter="url(#shadow)"/>
<text x="600" y="275" text-anchor="middle" font-family="Arial, sans-serif" font-size="14" font-weight="bold" fill="#2E7D32">数据收集与分析</text>
<text x="480" y="295" font-family="Arial, sans-serif" font-size="11" fill="#2E7D32">• 学习时间统计</text>
<text x="480" y="310" font-family="Arial, sans-serif" font-size="11" fill="#2E7D32">• 错题类型分析</text>
<text x="480" y="325" font-family="Arial, sans-serif" font-size="11" fill="#2E7D32">• 知识点掌握度</text>
<text x="650" y="295" font-family="Arial, sans-serif" font-size="11" fill="#2E7D32">• 成绩变化趋势</text>
<text x="650" y="310" font-family="Arial, sans-serif" font-size="11" fill="#2E7D32">• 学习效率评估</text>
<text x="650" y="325" font-family="Arial, sans-serif" font-size="11" fill="#2E7D32">• 心理状态监测</text>
</g>
<path d="M 160 200 L 550 250" stroke="#333" stroke-width="2" fill="none" marker-end="url(#arrowhead)"/>
<path d="M 360 200 L 580 250" stroke="#333" stroke-width="2" fill="none" marker-end="url(#arrowhead)"/>
<path d="M 560 200 L 600 250" stroke="#333" stroke-width="2" fill="none" marker-end="url(#arrowhead)"/>
<path d="M 760 200 L 650 250" stroke="#333" stroke-width="2" fill="none" marker-end="url(#arrowhead)"/>
<g id="analysis-results">
<rect x="100" y="380" width="150" height="80" rx="10" fill="#FFE0E0" stroke="#F44336" stroke-width="2"/>
<text x="175" y="405" text-anchor="middle" font-family="Arial, sans-serif" font-size="12" font-weight="bold" fill="#C62828">问题识别</text>
<text x="120" y="425" font-family="Arial, sans-serif" font-size="10" fill="#C62828">• 薄弱知识点</text>
<text x="120" y="440" font-family="Arial, sans-serif" font-size="10" fill="#C62828">• 学习方法问题</text>
<text x="120" y="455" font-family="Arial, sans-serif" font-size="10" fill="#C62828">• 时间分配不当</text>
</g>
<g id="progress-tracking">
<rect x="300" y="380" width="150" height="80" rx="10" fill="#E0F0FF" stroke="#2196F3" stroke-width="2"/>
<text x="375" y="405" text-anchor="middle" font-family="Arial, sans-serif" font-size="12" font-weight="bold" fill="#1565C0">进步追踪</text>
<text x="320" y="425" font-family="Arial, sans-serif" font-size="10" fill="#1565C0">• 分数提升幅度</text>
<text x="320" y="440" font-family="Arial, sans-serif" font-size="10" fill="#1565C0">• 知识点突破</text>
<text x="320" y="455" font-family="Arial, sans-serif" font-size="10" fill="#1565C0">• 学习习惯改善</text>
</g>
<g id="goal-achievement">
<rect x="500" y="380" width="150" height="80" rx="10" fill="#E8F5E8" stroke="#4CAF50" stroke-width="2"/>
<text x="575" y="405" text-anchor="middle" font-family="Arial, sans-serif" font-size="12" font-weight="bold" fill="#2E7D32">目标达成</text>
<text x="520" y="425" font-family="Arial, sans-serif" font-size="10" fill="#2E7D32">• 阶段目标完成</text>
<text x="520" y="440" font-family="Arial, sans-serif" font-size="10" fill="#2E7D32">• 整体进度评估</text>
<text x="520" y="455" font-family="Arial, sans-serif" font-size="10" fill="#2E7D32">• 下阶段规划</text>
</g>
<g id="strategy-adjustment">
<rect x="700" y="380" width="150" height="80" rx="10" fill="#FFF3E0" stroke="#FF9800" stroke-width="2"/>
<text x="775" y="405" text-anchor="middle" font-family="Arial, sans-serif" font-size="12" font-weight="bold" fill="#E65100">策略调整</text>
<text x="720" y="425" font-family="Arial, sans-serif" font-size="10" fill="#E65100">• 学习计划修正</text>
<text x="720" y="440" font-family="Arial, sans-serif" font-size="10" fill="#E65100">• 方法优化</text>
<text x="720" y="455" font-family="Arial, sans-serif" font-size="10" fill="#E65100">• 资源重新配置</text>
</g>
<path d="M 600 330 L 175 380" stroke="#333" stroke-width="2" fill="none" marker-end="url(#arrowhead)"/>
<path d="M 600 330 L 375 380" stroke="#333" stroke-width="2" fill="none" marker-end="url(#arrowhead)"/>
<path d="M 600 330 L 575 380" stroke="#333" stroke-width="2" fill="none" marker-end="url(#arrowhead)"/>
<path d="M 600 330 L 775 380" stroke="#333" stroke-width="2" fill="none" marker-end="url(#arrowhead)"/>
<g id="decision-diamond">
<polygon points="600,500 650,530 600,560 550,530" fill="#9C27B0" filter="url(#shadow)"/>
<text x="600" y="535" text-anchor="middle" font-family="Arial, sans-serif" font-size="11" font-weight="bold" fill="white">目标达成？</text>
</g>
<path d="M 175 460 L 575 500" stroke="#333" stroke-width="2" fill="none" marker-end="url(#arrowhead)"/>
<path d="M 375 460 L 585 500" stroke="#333" stroke-width="2" fill="none" marker-end="url(#arrowhead)"/>
<path d="M 575 460 L 600 500" stroke="#333" stroke-width="2" fill="none" marker-end="url(#arrowhead)"/>
<path d="M 775 460 L 615 500" stroke="#333" stroke-width="2" fill="none" marker-end="url(#arrowhead)"/>
<g id="continue-plan">
<rect x="350" y="600" width="120" height="50" rx="10" fill="#4CAF50" filter="url(#shadow)"/>
<text x="410" y="620" text-anchor="middle" font-family="Arial, sans-serif" font-size="11" font-weight="bold" fill="white">继续执行</text>
<text x="410" y="635" text-anchor="middle" font-family="Arial, sans-serif" font-size="10" fill="white">当前计划</text>
</g>
<g id="adjust-plan">
<rect x="550" y="600" width="120" height="50" rx="10" fill="#FF9800" filter="url(#shadow)"/>
<text x="610" y="620" text-anchor="middle" font-family="Arial, sans-serif" font-size="11" font-weight="bold" fill="white">调整计划</text>
<text x="610" y="635" text-anchor="middle" font-family="Arial, sans-serif" font-size="10" fill="white">优化策略</text>
</g>
<path d="M 580 540 L 430 600" stroke="#4CAF50" stroke-width="3" fill="none" marker-end="url(#arrowhead)"/>
<text x="500" y="575" font-family="Arial, sans-serif" font-size="11" fill="#4CAF50" font-weight="bold">是</text>
<path d="M 620 540 L 590 600" stroke="#FF9800" stroke-width="3" fill="none" marker-end="url(#arrowhead)"/>
<text x="630" y="575" font-family="Arial, sans-serif" font-size="11" fill="#FF9800" font-weight="bold">否</text>
<g id="feedback-loop">
<path d="M 670 625 Q 750 625 750 300 Q 750 250 700 250" stroke="#666" stroke-width="2" fill="none" marker-end="url(#arrowhead)" stroke-dasharray="5,5"/>
<text x="760" y="450" font-family="Arial, sans-serif" font-size="10" fill="#666">反馈循环</text>
</g>
<g id="success-metrics">
<rect x="900" y="200" width="250" height="200" rx="10" fill="#F0F8FF" stroke="#4169E1" stroke-width="2"/>
<text x="1025" y="225" text-anchor="middle" font-family="Arial, sans-serif" font-size="14" font-weight="bold" fill="#4169E1">成功指标</text>
<text x="920" y="250" font-family="Arial, sans-serif" font-size="11" fill="#4169E1">📊 分数提升指标：</text>
<text x="930" y="265" font-family="Arial, sans-serif" font-size="10" fill="#4169E1">• 月度提升5-10分</text>
<text x="930" y="280" font-family="Arial, sans-serif" font-size="10" fill="#4169E1">• 错题率下降20%</text>
<text x="920" y="300" font-family="Arial, sans-serif" font-size="11" fill="#4169E1">⏰ 学习效率指标：</text>
<text x="930" y="315" font-family="Arial, sans-serif" font-size="10" fill="#4169E1">• 作业完成时间缩短</text>
<text x="930" y="330" font-family="Arial, sans-serif" font-size="10" fill="#4169E1">• 理解速度提升</text>
<text x="920" y="350" font-family="Arial, sans-serif" font-size="11" fill="#4169E1">💪 能力发展指标：</text>
<text x="930" y="365" font-family="Arial, sans-serif" font-size="10" fill="#4169E1">• 自主学习能力</text>
<text x="930" y="380" font-family="Arial, sans-serif" font-size="10" fill="#4169E1">• 问题解决能力</text>
</g>
<text x="600" y="750" text-anchor="middle" font-family="Arial, sans-serif" font-size="12" fill="#666">持续评估 → 及时调整 → 稳步提升</text>
</svg>